<svg viewBox="0 0 1547.8225 2038.5852090032156" y="0" x="0" preserveAspectRatio="none" version="1.1" xmlns:xlink="http://www.w3.org/1999/xlink" xmlns="http://www.w3.org/2000/svg" style="max-height: 500px" width="1547.8225" height="2038.5852090032156">
	<defs>
		<linearGradient y2="335" x2="331" y1="269" x1="140" gradientUnits="userSpaceOnUse" id="logo-g-1">
			<stop stop-opacity="0" stop-color="#fff" offset="15%"/>
			<stop stop-color="#fff" offset="50%"/>
			<stop stop-opacity="0" stop-color="#fff" offset="85%"/>
		</linearGradient>

		<linearGradient y2="387" x2="629" y1="348" x1="262" gradientUnits="userSpaceOnUse" id="logo-g-2">
			<stop stop-opacity="0" stop-color="#fff" offset="35%"/>
			<stop stop-color="#fff" offset="50%"/>
			<stop stop-opacity="0" stop-color="#fff" offset="75%"/>
		</linearGradient>

		<linearGradient y2="352" x2="901" y1="389" x1="559" gradientUnits="userSpaceOnUse" id="logo-g-3">
			<stop stop-opacity="0" stop-color="#fff" offset="25%"/>
			<stop stop-color="#fff" offset="50%"/>
			<stop stop-opacity="0" stop-color="#fff" offset="65%"/>
		</linearGradient>

		<linearGradient y2="276" x2="1066" y1="357" x1="834" gradientUnits="userSpaceOnUse" id="logo-g-4">
			<stop stop-opacity="0" stop-color="#fff" offset="20%"/>
			<stop stop-color="#fff" offset="50%"/>
			<stop stop-opacity="0" stop-color="#fff" offset="85%"/>
		</linearGradient>

		<linearGradient y2="1147" x2="618" y1="0" x1="618" gradientUnits="userSpaceOnUse" id="logo-g-5">
			<stop stop-opacity="0.1" stop-color="#e39d52" offset="0%"/>
			<stop stop-color="#e39d52" offset="45%"/>
		</linearGradient>
	</defs>

	<path d="M 1137.8 1020 Q 1154.1 1075.05 1146.05 1153.4 1131.55 1293.15 1143.75 1452.95 1155.75 1612.7 1298.5 1713.75 1405.8 1787.2 1533 1774.65 1339 1752.45 1263.55 1592.45 1188.15 1432.5 1207.35 1228.1 1219.25 1100.75 1203 1020 1193.05 970.6 1172.6 938.65 1153.95 970.55 1131 1000.6 1134.8 1009.9 1137.8 1020 Z" fill="#eb1a50"/>
	<path d="M 1045.4 1093.75 Q 1023.55 1113.65 1000.8 1131.05 1063.65 1226.15 1077.45 1274.15 1095.2 1336.3 1097.5 1390.95 1098.4 1409.75 1100.4 1428.2 1126.55 1695.1 1339.15 1889.3 1200.35 1697.45 1169.9 1486.6 1167.2 1467.95 1164.5 1449.9 1134.05 1213.05 1045.4 1093.75 Z" fill="#0d8062"/>
	<path d="M 971.95 1151.8 Q 951.15 1165.6 929.85 1177.8 963.7 1272.55 1047.35 1372.3 1195.85 1555.2 1141.95 1739.35 1098.75 1886.6 1006.9 2000 1055.6 1981.35 1150.9 1816.4 1245.85 1651.2 1182.25 1488.75 1148.4 1402.25 1087.85 1337.95 1009.4 1254.1 971.95 1151.8 Z" fill="#065aac"/>
	<path d="M 1115.8 1020 Q 1115 1021 1114.2 1021.95 1132.8 1097 1112.2 1181.35 1048.6 1422.65 1160.95 1538.55 1251.2 1637.95 1375.7 1676.5 1113.65 1493.25 1149.45 1287.4 1191.75 1144.15 1178.65 1020 1174.85 983.8 1166.3 949.2 1143.85 985.8 1115.8 1020 Z" fill-opacity="0.7" fill="#fff"/>

	<path d="M 1401.15 1066.9 Q 1400.8 1065.3 1400.6 1063.5 L 1361.55 1063.5 Q 1363.7 1070.65 1366.05 1075.5 1373.75 1083.9 1393.25 1079.1 1399.7 1077.1 1401.15 1066.9 M 1396.5 1020 Q 1396.4 1018.65 1396.3 1017.3 L 1353.15 1017.3 Q 1353.3 1018.65 1353.5 1020 1355.15 1033.75 1357.1 1044.7 L 1398.65 1044.7 Q 1397.35 1032.7 1396.5 1020 M 1394.35 988.6 L 1350.45 988.6 Q 1351.15 997.95 1351.9 1006.35 L 1395.4 1006.35 Q 1394.9 997.6 1394.35 988.6 M 1347.95 947.4 Q 1348.65 964.1 1349.75 978.75 L 1393.8 978.75 Q 1393.1 963.55 1392.75 947.4 L 1347.95 947.4 M 1346.85 915.9 Q 1347.05 923.4 1347.25 930.6 L 1392.35 930.6 Q 1392.2 923.25 1392.2 915.9 L 1346.85 915.9 M 1400.95 592.05 Q 1396.65 348.4 1329.65 168.2 1296.7 79 1263.2 77.2 1255 76.85 1250.7 79.2 1238.15 86.7 1254.6 121.8 1372.3 373.3 1349.75 619.6 1344.2 789.95 1346.35 898.15 L 1392 898.15 Q 1392 893.7 1392 889.2 L 1400.95 592.05 Z" fill="#b57226"/>
	<path d="M 154.85 1020 Q 147.5 1013.05 140.25 1005.8 108.7 974.3 82.2 940.6 106.5 981.8 137.85 1020 159 1045.75 183.4 1070.15 367.2 1253.9 626.95 1253.9 886.7 1253.9 1070.1 1070.15 1094.55 1045.75 1115.75 1020 1223.95 888.6 1247.45 722.1 1203.05 880.8 1077.65 1005.8 1070.45 1013.05 1063.1 1020 873.45 1200.2 609.05 1200.2 344.8 1200.2 154.85 1020 M 1070.1 183.6 Q 1045.75 159.2 1020 138.05 852.2 0 626.95 0 367.2 0 183.4 183.6 0 367.05 0 626.95 0 655.6 2.3 683.2 42.8 839.95 165.5 962.65 196.85 994 230.4 1020 393.6 1146.45 609.05 1146.45 824.45 1146.45 987.4 1020 1003.95 1007.15 1020 993 1036.4 978.5 1052.2 962.65 1236 779.2 1236 519.5 1236 491 1233.85 463.4 1193 306.3 1070.1 183.6 Z" fill="#e29d52"/>

	<path d="M 87.75 423.3 Q 127.7 496.35 191.5 560.3 214.25 582.7 238.05 602.8 L 419.15 64.65 Q 302.2 103.35 206.5 193.3 L 87.75 423.3 Z" fill="url(#logo-g-1)"/>
	<path d="M 592.2 32.8 Q 499.6 34.75 417 62.35 L 236.1 600.65 Q 388.9 726.55 592.35 731.05 L 592.2 32.8 Z" fill="url(#logo-g-2)"/>
	<path d="M 930.95 637.9 L 780.8 55.9 Q 700.55 32.45 610.3 32.45 602.95 32.45 595.4 32.8 L 595.4 731.05 Q 602.95 731.2 610.3 731.2 789.95 731.05 930.95 637.9 Z" fill="url(#logo-g-3)"/>
	<path d="M 962.1 148.85 Q 879.15 86.15 782.05 57.85 L 932.2 639.7 Q 978.2 609.25 1020 569.05 1024.75 564.5 1029.45 559.8 1084.8 504.45 1122.6 441.9 L 962.1 148.85 Z" fill="url(#logo-g-4)"/>
	<path d="M 1070.1 183.6 Q 1045.75 159.2 1020 138.05 852.2 0 626.95 0 367.2 0 183.4 183.6 0 367.05 0 626.95 0 655.6 2.3 683.2 42.8 839.95 165.5 962.65 196.85 994 230.4 1020 393.6 1146.45 609.05 1146.45 824.45 1146.45 987.4 1020 1003.95 1007.15 1020 993 1036.4 978.5 1052.2 962.65 1236 779.2 1236 519.5 1236 491 1233.85 463.4 1193 306.3 1070.1 183.6 Z" fill="url(#logo-g-5)"/>

	<path d="M 678 375.8 L 653.8 382.1 642.15 395.9 618 397.5 547.95 412.9 514.1 413.8 510.15 401.95 485.6 405.9 470.9 420.05 462.5 409.85 430.25 411.3 417.2 424.9 400 426.7 399.1 411.3 357.7 415.25 320.45 428.85 284.1 435.65 261.7 445.15 249 440.5 221.2 418.25 206.5 423.1 192.75 444.25 178.95 444.25 164.6 425.8 129.7 422.75 118.2 407.7 96.2 426.15 82.4 449.1 83.1 494.95 91.7 533.65 105.15 537.2 112.1 516.25 128.6 505.5 130.2 525.75 142.6 527.55 154.2 493.35 151.7 479.2 198.3 473.6 220.15 490.8 226.4 504.6 249.15 518.25 302 513.4 326.7 515.7 345.7 534.35 341.05 559.05 369.35 541.7 388 520.9 380.3 500.65 428.3 509.1 473.25 525.55 516.95 531.85 561.75 569.8 561.55 593.8 576.8 604.55 595.25 606.7 605.8 627.3 592.35 646.5 578.05 656 560.15 660.3 525.4 657.95 512.5 652.05 490.8 630.55 456.75 606.9 419.7 601.7 390.65 594.7 386 605.1 406.6 608.85 415.55 615.85 419.5 638.4 452.65 654.55 461.6 669.4 455.7 681.75 406.6 724.75 388.35 733.35 361.65 736.75 344.8 746.25 314.2 753.8 328 778.7 321.7 805.2 287.15 837.6 275.15 840.3 212.45 837.95 195.95 849.25 235.2 884.75 265.1 899.6 290.9 918.25 302.2 917.85 362.9 943.65 364.7 960.3 376.35 963.55 410 957.1 448.15 942.95 473.45 895.65 477.2 873.6 495.65 845.7 503 839.75 539 831.55 567.3 816.65 624.25 793 645.05 790.7 663.85 807.35 678.55 814.7 675.65 829.75 677.45 858.75 667.95 874.5 630.9 903.55 621.55 914.3 586.65 939.55 556.35 950.65 540.25 985.05 525.4 993.65 509.6 985.4 499.05 991.65 474.15 988.1 458.4 995.8 451.2 1009.95 460.55 1026.25 486.35 1045.4 508.2 1034.5 525.9 1015.65 582.7 1006 606.9 993.65 653.45 963.35 690.9 955.15 709.5 928.45 734.25 908.9 752.35 905.5 779.05 922.7 787.25 917.85 787.6 886.15 774 872.35 755.9 862.5 745.55 845.15 736.4 808.4 748.2 813.25 757.55 805.75 790.3 795.35 810 770.45 832.75 773.15 901.2 788.7 919.45 798.05 909.6 809.85 925.2 824.9 934.5 846.75 970.35 844.25 975.55 853.2 995.4 848.2 1011.7 859.3 1027.5 855.35 1033.2 839.95 1056.5 842.1 1047.7 827.95 1052.4 813.95 1091.25 799.8 1089.1 791.2 1058.45 795.5 1035.35 807.7 1004.9 790.85 1018.7 779.4 1034.8 739.65 1056.15 727.45 1059.9 710.45 1080.15 694.3 1101.1 714.9 1103.6 680.35 1129.75 679.6 1132.25 658.15 1120.1 645.05 1134.25 639.15 1140.15 618.9 1157.15 609.05 1144.45 596.85 1119.2 613.15 1103.05 607.45 1119.35 581.45 1133.35 571.6 1141.75 555.5 1152.15 550.3 1141.6 535.8 1126 534.9 1106.1 546.35 1075.65 554.75 1055.4 574.85 1071.35 589.15 1031.8 607.6 980.2 614.4 925.75 605.65 874.85 587.35 861.25 595.45 836 593.1 829.9 585.05 856.95 578.05 844.6 566.25 819.15 571.8 808.6 566.95 806.6 553.9 786.55 544.75 768.1 552.6 746.6 538.1 742.15 524.3 766.15 516.8 770.45 494.75 793.2 491.7 818.25 478.45 828.8 462.35 844.4 471.1 886.85 458.75 911.4 442.8 988.25 426 962.45 392.85 933.45 385.3 926.45 367.2 909.8 360.75 890.45 364.9 881.85 340.35 854.6 344.85 839.2 352.9 804.8 358.6 781.55 353.45 737.1 371 711.85 363.1 689.3 363.1 678 375.8 M 932.7 408.95 L 956.35 410.05 951 421.15 933.6 422.75 932.7 408.95 M 1091.05 654 L 1084.25 640.2 1121.35 634.15 1110.6 645.95 1091.05 654 M 460.55 490.8 L 480.75 489.75 472.9 505.7 460.55 490.8 M 1005.65 825.45 L 973.9 834.75 954.75 827.25 995.6 799.3 1006 799.1 1015.5 817 1005.65 825.45 Z" fill="#045da4"/>

	<path d="M1572.6,56c9-1.2,19.4-2.2,31.1-3.1c11.7-0.8,23.8-1.4,36.3-1.8c12.5-0.4,24.7-0.7,36.6-0.9c11.9-0.2,22.5-0.3,32-0.3 c41,0,76.2,5.4,105.5,16.3c29.3,10.9,53.3,25.9,72,45.2c18.7,19.3,32.3,42.2,40.9,68.9c8.6,26.7,12.9,55.8,12.9,87.3 c0,28.7-4.2,56.6-12.6,83.6c-8.4,27.1-22,51.2-40.9,72.3c-18.9,21.1-43.5,38-73.8,50.7c-30.3,12.7-67.7,19.1-111.9,19.1 c-7,0-16.5-0.2-28.6-0.6c-12.1-0.4-24.6-0.9-37.5-1.5c-12.9-0.6-25-1.2-36.3-1.8c-11.3-0.6-19.8-1.3-25.5-2.2V56z M1715.3,129.8 c-9.4,0-19.1,0.1-28.9,0.3c-9.8,0.2-17.4,0.7-22.8,1.5v279.2c2,0.4,5.2,0.7,9.5,0.9c4.3,0.2,8.8,0.4,13.5,0.6 c4.7,0.2,9.2,0.4,13.5,0.6c4.3,0.2,7.5,0.3,9.5,0.3c26.2,0,48-4.1,65.2-12.3c17.2-8.2,30.8-19.1,40.9-32.6 c10-13.5,17.1-28.9,21.2-46.1c4.1-17.2,6.2-35.1,6.2-53.5c0-15.2-1.8-31-5.5-47.4c-3.7-16.4-10.4-31.4-20-44.9 c-9.6-13.5-22.7-24.7-39.1-33.5C1762.2,134.2,1741.1,129.8,1715.3,129.8z" fill="#fff"/>
	<path d="M2284.8,457c-13.9,10.7-32.9,19.8-56.9,27.4c-24,7.6-49.7,11.4-77.2,11.4c-55.4,0-95.9-15.2-121.8-45.5 c-25.8-30.3-38.7-72-38.7-124.8c0-56.2,14.5-98.7,43.7-127.6c29.1-28.9,70.1-43.4,123-43.4c17.2,0,34.2,2.2,51,6.5 c16.8,4.3,31.8,11.5,44.9,21.5c13.1,10.1,23.7,23.6,31.7,40.6c8,17,12,38,12,63c0,8.6-0.5,18-1.5,28.3c-1,10.3-2.8,20.9-5.2,32 h-215.2c2,27.9,10.1,48.5,24.3,61.8c14.1,13.3,37.2,20,69.2,20c19.3,0,36.6-2.8,52-8.3s27.2-11.2,35.4-16.9L2284.8,457z M2155.6,222.1c-25.4,0-44.3,6.9-56.6,20.6c-12.3,13.7-19.5,31.3-21.5,52.6h139c1.6-22.5-2.5-40.4-12.3-53.5 C2194.4,228.6,2178.2,222.1,2155.6,222.1z M2166.1,38.2h87.3V56l-77.5,79.3h-46.7L2166.1,38.2z" fill="#fff"/>
	<path d="M2461.9,373.3c0,31.2,10,46.7,30.1,46.7c5.7,0,11.2-0.5,16.3-1.5c5.1-1,11.2-2.8,18.1-5.2l10.5,67 c-8.2,3.7-19.8,7.3-34.7,10.8c-15,3.5-30.4,5.2-46.4,5.2c-25.8,0-45.6-5.7-59.3-17.2c-13.7-11.5-20.6-30.3-20.6-56.6V56h86.1V373.3 z" fill="#fff"/>
	<path d="M2591.7,163.6h86.1v322.9h-6.1c-25.4,11.1-37.9,26.2-37.5,45.5c0,8.2,2.9,15.1,8.6,20.6c5.7,5.5,13.5,8.3,23.4,8.3 c4.5,0,8.8-0.4,12.9-1.2c4.1-0.8,8.8-2.7,14.1-5.5l13.5,39.4c-7.4,5.3-18.2,10.5-32.6,15.4c-14.4,4.9-29.9,7.4-46.7,7.4 c-25,0-44.1-5.5-57.2-16.6c-13.1-11.1-19.7-25.4-19.7-43.1c0-15.6,5.6-29.4,16.9-41.5c11.3-12.1,26.3-21.6,45.2-28.6h-20.9V163.6z" fill="#fff"/>
	<path d="M2993.9,486.5V309.4c0-27.9-4.3-48-12.9-60.3c-8.6-12.3-23.8-18.4-45.5-18.4c-18.5,0-34.1,5-47,15.1 c-12.9,10.1-21.8,22.9-26.8,38.4c0,33.6,0.1,67.3,0.3,101.2c0.2,33.8,0.3,67.6,0.3,101.2h-86.1V163.6h67.7l9.2,46.1h9.2 c10.7-15.2,24.8-28.2,42.4-39.1c17.6-10.9,40.6-16.3,68.9-16.3c17.2,0,32.5,2.2,45.8,6.5c13.3,4.3,24.4,11.7,33.2,22.1 c8.8,10.5,15.6,24.5,20.3,42.1c4.7,17.6,7.1,39.8,7.1,66.4v195H2993.9z" fill="#fff"/>
	<path d="M3444.6,457c-5.3,4.1-11.5,8-18.5,11.7c-7,3.7-14.6,7.2-22.8,10.5c-12.3,6.1-21.7,13.3-28.3,21.5c-6.6,8.2-9.8,18.9-9.8,32 c0,8.2,2.7,15.1,8,20.6c5.3,5.5,13.3,8.3,24,8.3c7.8,0,16.4-2.1,25.8-6.1l12.9,38.1c-3.7,2.5-8.3,5.1-13.8,8 c-5.5,2.9-11.8,5.3-18.8,7.4c-7,2-14.3,3.8-21.8,5.2c-7.6,1.4-15.3,2.2-23.1,2.2c-26.2,0-46-5.5-59.3-16.6 c-13.3-11.1-20-25.4-20-43.1c0-12.7,4.1-24.2,12.3-34.4c8.2-10.3,18.9-19.3,32-27.1c-2.1,0.4-4.2,0.6-6.5,0.6c-2.3,0-4.4,0-6.5,0 c-55.3,0-95.9-15.2-121.8-45.5c-25.8-30.3-38.7-72-38.7-124.8c0-56.2,14.5-98.7,43.7-127.6c29.1-28.9,70.1-43.4,123-43.4 c17.2,0,34.2,2.2,51,6.5c16.8,4.3,31.8,11.5,44.9,21.5c13.1,10.1,23.7,23.6,31.7,40.6c8,17,12,38,12,63c0,8.6-0.5,18-1.5,28.3 c-1,10.3-2.8,20.9-5.2,32h-215.2c2,27.9,10.1,48.5,24.3,61.8c14.1,13.3,37.2,20,69.2,20c19.3,0,36.6-2.8,52-8.3 s27.2-11.2,35.4-16.9L3444.6,457z M3315.5,222.1c-25.4,0-44.3,6.9-56.6,20.6c-12.3,13.7-19.5,31.3-21.5,52.6h139 c1.6-22.5-2.5-40.4-12.3-53.5C3354.2,228.6,3338,222.1,3315.5,222.1z" fill="#fff"/>
	<path d="M3853.6,260.2h175.9v193.1c-9.4,7.4-19.8,13.6-31.1,18.8c-11.3,5.1-23.2,9.4-35.7,12.9c-12.5,3.5-25.3,6-38.4,7.7 c-13.1,1.6-26,2.5-38.7,2.5c-29.5,0-57.1-4.3-82.7-12.9c-25.6-8.6-48-22-67-40.3c-19.1-18.2-34-41.5-44.9-69.8 c-10.9-28.3-16.3-61.9-16.3-100.9c0-40.6,6.6-75.1,19.7-103.6c13.1-28.5,30.2-51.7,51.4-69.5c21.1-17.8,44.7-30.8,70.7-38.7 c26-8,52-12,77.8-12c26.6,0,50.1,2,70.4,5.8c20.3,3.9,36.2,7.7,47.7,11.4l-19.1,75.6c-11.1-3.7-23.6-6.8-37.5-9.2 c-13.9-2.5-31.4-3.7-52.3-3.7c-19.3,0-36.9,2.6-52.9,7.7c-16,5.1-29.9,13.4-41.8,24.9c-11.9,11.5-21.1,26.4-27.7,44.9 c-6.6,18.4-9.8,40.8-9.8,67c0,25.4,3.3,47.2,9.8,65.2c6.6,18,15.5,32.9,26.8,44.6c11.3,11.7,24.3,20.2,39.1,25.5 c14.8,5.3,30.3,8,46.7,8c11.1,0,22.2-1.2,33.5-3.7c11.3-2.5,20.8-6.4,28.6-11.7v-74.4l-102.1-9.8V260.2z" fill="#fff"/>
	<path d="M4082.4,325.4c0-53.3,14.1-95.1,42.4-125.5c28.3-30.3,68.7-45.5,121.2-45.5c27.5,0,51.4,4.3,72,12.9 c20.5,8.6,37.5,20.6,51,36c13.5,15.4,23.7,33.4,30.4,54.1c6.8,20.7,10.1,43.4,10.1,68c0,26.2-3.7,49.9-11.1,71 c-7.4,21.1-18,39.1-32,53.8c-13.9,14.8-31.1,26-51.4,33.8s-43.4,11.7-69.2,11.7c-27.9,0-52.1-4.3-72.6-12.9 c-20.5-8.6-37.5-20.6-51-36c-13.5-15.4-23.6-33.4-30.1-54.1C4085.7,372,4082.4,349.6,4082.4,325.4z M4170.9,325.4 c0,13.5,1.4,26.2,4.3,38.1c2.9,11.9,7.3,22.2,13.2,31.1c5.9,8.8,13.6,15.9,23.1,21.2c9.4,5.3,20.9,8,34.4,8c50,0,75-32.8,75-98.4 c0-14.3-1.3-27.6-4-39.7c-2.7-12.1-7-22.5-12.9-31.4c-5.9-8.8-13.7-15.7-23.4-20.6c-9.6-4.9-21.2-7.4-34.7-7.4 c-23.4,0-41.7,7.8-55,23.4C4177.6,265.3,4170.9,290.5,4170.9,325.4z" fill="#fff"/>
	<path d="M4440.3,163.6h49.2v-44.3l86.1-22.8v67h86.7v72h-86.7v111.9c0,25.8,2.6,44.4,7.7,55.7c5.1,11.3,15.3,16.9,30.4,16.9 c9.4,0,17.4-0.7,24-2.2c6.6-1.4,13.5-3.8,20.9-7.1l17.8,64.6c-13.1,5.7-28.2,10.7-45.2,14.8c-17,4.1-33.5,6.1-49.5,6.1 c-32,0-55.4-7.9-70.1-23.7c-14.8-15.8-22.1-41.1-22.1-76V235.6h-49.2V163.6z" fill="#fff"/>
	<path d="M4702.3,91.7c0-12.3,4.3-22.2,12.9-29.8c8.6-7.6,19.5-11.4,32.6-11.4c16.4,0,29.3,5.1,38.7,15.4 c9.4,10.3,14.1,23.4,14.1,39.4c0,17.2-2.8,31.7-8.3,43.4s-12.3,21.4-20.3,29.2c-8,7.8-16.2,13.8-24.6,18.1 c-8.4,4.3-15.7,7.3-21.8,8.9l-21.5-36.3c9-3.3,16.8-7.9,23.4-13.8c6.6-5.9,10.2-13.6,11.1-23.1c-8.6,0.8-16.8-2.2-24.6-9.2 C4706.2,115.5,4702.3,105.2,4702.3,91.7z" fill="#fff"/>
	<path d="M4881.3,163.6h86.1v322.9h-6.2c-25.4,11.1-37.9,26.2-37.5,45.5c0,8.2,2.9,15.1,8.6,20.6c5.7,5.5,13.5,8.3,23.4,8.3 c4.5,0,8.8-0.4,12.9-1.2c4.1-0.8,8.8-2.7,14.1-5.5l13.5,39.4c-7.4,5.3-18.2,10.5-32.6,15.4c-14.4,4.9-29.9,7.4-46.7,7.4 c-25,0-44.1-5.5-57.2-16.6c-13.1-11.1-19.7-25.4-19.7-43.1c0-15.6,5.6-29.4,16.9-41.5c11.3-12.1,26.3-21.6,45.2-28.6h-20.9V163.6z" fill="#fff"/>
	<path d="M5283.5,486.5V309.4c0-27.9-4.3-48-12.9-60.3c-8.6-12.3-23.8-18.4-45.5-18.4c-18.5,0-34.1,5-47,15.1 c-12.9,10.1-21.8,22.9-26.8,38.4c0,33.6,0.1,67.3,0.3,101.2c0.2,33.8,0.3,67.6,0.3,101.2h-86.1V163.6h67.6l9.2,46.1h9.2 c10.7-15.2,24.8-28.2,42.4-39.1c17.6-10.9,40.6-16.3,68.9-16.3c17.2,0,32.5,2.2,45.8,6.5c13.3,4.3,24.4,11.7,33.2,22.1 c8.8,10.5,15.6,24.5,20.3,42.1c4.7,17.6,7.1,39.8,7.1,66.4v195H5283.5z" fill="#fff"/>
	<path d="M5734.2,457c-5.3,4.1-11.5,8-18.5,11.7c-7,3.7-14.6,7.2-22.8,10.5c-12.3,6.1-21.7,13.3-28.3,21.5c-6.6,8.2-9.8,18.9-9.8,32 c0,8.2,2.7,15.1,8,20.6c5.3,5.5,13.3,8.3,24,8.3c7.8,0,16.4-2.1,25.8-6.1l12.9,38.1c-3.7,2.5-8.3,5.1-13.8,8 c-5.5,2.9-11.8,5.3-18.8,7.4c-7,2-14.3,3.8-21.8,5.2c-7.6,1.4-15.3,2.2-23.1,2.2c-26.2,0-46-5.5-59.3-16.6 c-13.3-11.1-20-25.4-20-43.1c0-12.7,4.1-24.2,12.3-34.4c8.2-10.3,18.9-19.3,32-27.1c-2.1,0.4-4.2,0.6-6.5,0.6c-2.3,0-4.4,0-6.5,0 c-55.3,0-95.9-15.2-121.8-45.5c-25.8-30.3-38.7-72-38.7-124.8c0-56.2,14.5-98.7,43.7-127.6c29.1-28.9,70.1-43.4,123-43.4 c17.2,0,34.2,2.2,51,6.5c16.8,4.3,31.8,11.5,44.9,21.5c13.1,10.1,23.7,23.6,31.7,40.6c8,17,12,38,12,63c0,8.6-0.5,18-1.5,28.3 c-1,10.3-2.8,20.9-5.2,32h-215.2c2,27.9,10.1,48.5,24.3,61.8c14.1,13.3,37.2,20,69.2,20c19.3,0,36.6-2.8,52-8.3 s27.2-11.2,35.4-16.9L5734.2,457z M5605.1,222.1c-25.4,0-44.3,6.9-56.6,20.6c-12.3,13.7-19.5,31.3-21.5,52.6h139 c1.6-22.5-2.5-40.4-12.3-53.5C5643.8,228.6,5627.6,222.1,5605.1,222.1z" fill="#fff"/>
	<path d="M1744.6,878.2h183v201c-9.8,7.7-20.6,14.2-32.3,19.5c-11.7,5.3-24.1,9.8-37.1,13.4c-13,3.6-26.4,6.3-40,8 c-13.7,1.7-27.1,2.6-40.3,2.6c-30.7,0-59.4-4.5-86.1-13.4c-26.7-9-49.9-22.9-69.8-41.9c-19.8-19-35.4-43.2-46.7-72.6 c-11.3-29.4-17-64.4-17-105c0-42.2,6.8-78.2,20.5-107.8c13.6-29.7,31.5-53.8,53.4-72.3c22-18.6,46.5-32,73.6-40.3 c27.1-8.3,54.1-12.5,81-12.5c27.7,0,52.2,2,73.3,6.1c21.1,4.1,37.6,8,49.6,11.8l-19.8,78.7c-11.5-3.8-24.5-7-39-9.6 c-14.5-2.6-32.6-3.8-54.4-3.8c-20.1,0-38.4,2.7-55,8c-16.6,5.3-31.1,14-43.5,25.9c-12.4,11.9-22,27.5-28.8,46.7 c-6.8,19.2-10.2,42.5-10.2,69.8c0,26.5,3.4,49.1,10.2,67.8c6.8,18.8,16.1,34.2,27.8,46.4c11.7,12.2,25.3,21,40.6,26.6 c15.4,5.6,31.6,8.3,48.6,8.3c11.5,0,23.1-1.3,34.9-3.8c11.7-2.6,21.7-6.6,29.8-12.2V946l-106.2-10.2V878.2z" fill="#fff"/>
	<path d="M2022.3,946c0-55.5,14.7-99,44.2-130.6c29.4-31.6,71.5-47.4,126.1-47.4c28.6,0,53.5,4.5,74.9,13.4 c21.3,9,39,21.4,53.1,37.4s24.6,34.8,31.7,56.3c7,21.5,10.6,45.1,10.6,70.7c0,27.3-3.8,52-11.5,73.9c-7.7,22-18.8,40.6-33.3,56 c-14.5,15.4-32.3,27.1-53.4,35.2c-21.1,8.1-45.1,12.2-72,12.2c-29,0-54.2-4.5-75.5-13.4c-21.3-9-39-21.4-53.1-37.4 s-24.5-34.8-31.4-56.3C2025.7,994.5,2022.3,971.2,2022.3,946z M2114.5,946c0,14.1,1.5,27.3,4.5,39.7c3,12.4,7.6,23.1,13.8,32.3 c6.2,9.2,14.2,16.5,24,22.1c9.8,5.6,21.8,8.3,35.8,8.3c52,0,78.1-34.1,78.1-102.4c0-14.9-1.4-28.7-4.2-41.3 c-2.8-12.6-7.3-23.5-13.4-32.6c-6.2-9.2-14.3-16.3-24.3-21.4c-10-5.1-22.1-7.7-36.2-7.7c-24.3,0-43.4,8.1-57.3,24.3 C2121.4,883.5,2114.5,909.7,2114.5,946z" fill="#fff"/>
	<path d="M2584.9,951.8l13.4,51.8h10.2l9.6-53.1l62.7-172.8h96.6l-153.6,339.2h-51.2l-160-339.2H2517L2584.9,951.8z" fill="#fff"/>
	<path d="M3137.8,1083c-14.5,11.1-34.2,20.6-59.2,28.5c-25,7.9-51.7,11.8-80.3,11.8c-57.6,0-99.8-15.8-126.7-47.4 c-26.9-31.6-40.3-74.9-40.3-129.9c0-58.4,15.1-102.7,45.4-132.8c30.3-30.1,73-45.1,128-45.1c17.9,0,35.6,2.2,53.1,6.7 c17.5,4.5,33.1,11.9,46.7,22.4c13.6,10.5,24.6,24.5,33,42.2c8.3,17.7,12.5,39.6,12.5,65.6c0,9-0.5,18.8-1.6,29.4 c-1.1,10.7-2.9,21.8-5.4,33.3h-224c2.1,29,10.6,50.5,25.3,64.3c14.7,13.9,38.7,20.8,72,20.8c20,0,38.1-2.9,54.1-8.6 s28.3-11.6,36.8-17.6L3137.8,1083z M3003.4,838.5c-26.5,0-46.1,7.2-58.9,21.4c-12.8,14.3-20.3,32.5-22.4,54.7h144.6 c1.7-23.5-2.6-42-12.8-55.7C3043.8,845.3,3026.9,838.5,3003.4,838.5z" fill="#fff"/>
	<path d="M3468.7,859.6c-12.8-4.3-25.6-6.4-38.4-6.4c-18.8,0-34.2,4.5-46.4,13.4s-20.2,20.3-24,33.9v213.1h-89.6v-336h70.4l9.6,46.7 h8.3c8.5-17.5,19.9-30.9,34.2-40.3c14.3-9.4,30.6-14.1,49-14.1c11.5,0,24.7,2.4,39.7,7L3468.7,859.6z" fill="#fff"/>
	<path d="M3796.4,1113.7V929.4c0-29-4.5-49.9-13.4-62.7c-9-12.8-24.8-19.2-47.4-19.2c-19.2,0-35.5,5.2-49,15.7 c-13.4,10.5-22.7,23.8-27.8,40c0,35,0.1,70.1,0.3,105.3c0.2,35.2,0.3,70.3,0.3,105.3h-89.6v-336h70.4l9.6,48h9.6 c11.1-15.8,25.8-29.3,44.2-40.6c18.3-11.3,42.2-17,71.7-17c17.9,0,33.8,2.2,47.7,6.7c13.9,4.5,25.4,12.2,34.6,23 c9.2,10.9,16.2,25.5,21.1,43.8c4.9,18.3,7.4,41.4,7.4,69.1v202.9H3796.4z" fill="#fff"/>
	<path d="M4227.7,1113.7V938.3c0-32.4-3.4-55.7-10.2-69.8c-6.8-14.1-20.9-21.1-42.2-21.1c-17.9,0-32.2,4.4-42.9,13.1 c-10.7,8.8-19,20.2-25,34.2v218.9h-89.6v-336h69.1l10.2,46.7h8.3c5.5-7.2,11.9-14.3,19.2-21.1c7.2-6.8,15.2-12.8,24-17.9 c8.7-5.1,18.6-9.3,29.4-12.5c10.9-3.2,23.1-4.8,36.8-4.8c22.6,0,41.5,5,56.6,15c15.1,10,27.2,26.8,36.2,50.2 c12.4-20.5,27.4-36.5,45.1-48c17.7-11.5,38.3-17.3,61.8-17.3c20.5,0,37.9,2.4,52.2,7c14.3,4.7,25.9,12.8,34.9,24.3 c9,11.5,15.5,27.1,19.5,46.7c4,19.6,6.1,44.2,6.1,73.6v193.9h-89.6V933.8c0-14.1-0.6-26.5-1.9-37.1c-1.3-10.7-3.8-19.7-7.7-27.2 c-3.8-7.5-9.3-13-16.3-16.6c-7-3.6-16.3-5.4-27.8-5.4c-17.9,0-32.3,4.6-43.2,13.8c-10.9,9.2-18.7,21.9-23.4,38.1v214.4H4227.7z" fill="#fff"/>
	<path d="M4946.4,1083c-14.5,11.1-34.2,20.6-59.2,28.5c-25,7.9-51.7,11.8-80.3,11.8c-57.6,0-99.8-15.8-126.7-47.4 c-26.9-31.6-40.3-74.9-40.3-129.9c0-58.4,15.1-102.7,45.4-132.8c30.3-30.1,73-45.1,128-45.1c17.9,0,35.6,2.2,53.1,6.7 c17.5,4.5,33.1,11.9,46.7,22.4c13.7,10.5,24.6,24.5,33,42.2c8.3,17.7,12.5,39.6,12.5,65.6c0,9-0.5,18.8-1.6,29.4 c-1.1,10.7-2.9,21.8-5.4,33.3h-224c2.1,29,10.6,50.5,25.3,64.3c14.7,13.9,38.7,20.8,72,20.8c20.1,0,38.1-2.9,54.1-8.6 s28.3-11.6,36.8-17.6L4946.4,1083z M4812,838.5c-26.5,0-46.1,7.2-58.9,21.4c-12.8,14.3-20.3,32.5-22.4,54.7h144.6 c1.7-23.5-2.6-42-12.8-55.7C4852.4,845.3,4835.5,838.5,4812,838.5z" fill="#fff"/>
	<path d="M5305.5,1113.7V929.4c0-29-4.5-49.9-13.4-62.7c-9-12.8-24.8-19.2-47.4-19.2c-19.2,0-35.5,5.2-49,15.7 c-13.4,10.5-22.7,23.8-27.8,40c0,35,0.1,70.1,0.3,105.3c0.2,35.2,0.3,70.3,0.3,105.3h-89.6v-336h70.4l9.6,48h9.6 c11.1-15.8,25.8-29.3,44.2-40.6c18.3-11.3,42.2-17,71.7-17c17.9,0,33.8,2.2,47.7,6.7c13.9,4.5,25.4,12.2,34.6,23 c9.2,10.9,16.2,25.5,21.1,43.8c4.9,18.3,7.4,41.4,7.4,69.1v202.9H5305.5z" fill="#fff"/>
	<path d="M5485.9,777.7h51.2v-46.1l89.6-23.7v69.8h90.2v74.9h-90.2V969c0,26.9,2.7,46.2,8,57.9c5.3,11.7,15.9,17.6,31.7,17.6 c9.8,0,18.1-0.7,25-2.2c6.8-1.5,14.1-3.9,21.8-7.4l18.6,67.2c-13.7,6-29.3,11.1-47,15.4c-17.7,4.3-34.9,6.4-51.5,6.4 c-33.3,0-57.6-8.2-73-24.6s-23-42.8-23-79V852.6h-51.2V777.7z" fill="#fff"/>
	<path d="M1577.9,1425.9c0-16.1,2-30.4,6-43c4-12.6,9.8-23.2,17.4-31.9c7.6-8.7,16.8-15.3,27.7-19.9c10.9-4.6,23.3-6.9,37.1-6.9 c14.7,0,27.7,2.5,38.8,7.4c11.1,4.9,20.3,11.9,27.7,20.7c7.4,8.9,12.9,19.6,16.5,32.1c3.6,12.5,5.5,26.3,5.5,41.4 c0,16.1-2,30.4-6,43c-4,12.6-9.8,23.2-17.5,31.9c-7.7,8.7-16.9,15.3-27.9,19.9c-10.9,4.6-23.3,6.9-37.1,6.9 c-14.9,0-27.9-2.5-38.9-7.4c-11-4.9-20.2-11.9-27.4-20.7c-7.3-8.9-12.7-19.6-16.4-32.1C1579.7,1454.8,1577.9,1441,1577.9,1425.9z M1607.6,1425.9c0,10.6,1.2,20.5,3.5,29.7c2.3,9.3,5.9,17.4,10.6,24.5c4.8,7,10.8,12.6,18.2,16.7c7.4,4.1,16.1,6.1,26.2,6.1 c18.1,0,32.4-6.2,43-18.6c10.5-12.4,15.8-31.9,15.8-58.4c0-10.4-1.2-20.2-3.5-29.5c-2.3-9.3-5.9-17.4-10.6-24.5 c-4.8-7-10.8-12.6-18.2-16.8c-7.4-4.2-16.2-6.3-26.5-6.3c-17.9,0-32.2,6.3-42.7,18.9C1612.9,1380.4,1607.6,1399.7,1607.6,1425.9z" fill="#fff"/>
	<path d="M1822.4,1376.9v80.9c0,7.8,0.5,14.7,1.4,20.7c0.9,6,2.6,11,5,15c2.4,4,5.7,7.1,9.9,9.2c4.2,2.1,9.6,3.2,16.1,3.2 c11.2,0,20.3-3.2,27.4-9.5c7.1-6.3,12.5-14.2,16.2-23.5v-96h25.8v105.3c0,7.1,0.3,14.3,0.8,21.7c0.6,7.4,1.4,14,2.5,20h-17.4 l-6.7-24.4h-2.8c-4.9,8.4-11.6,15.2-20.2,20.4c-8.6,5.2-19.3,7.8-32.2,7.8c-8.6,0-16.1-1-22.5-3.1c-6.4-2.1-11.9-5.6-16.2-10.5 c-4.4-4.9-7.7-11.5-9.8-19.7c-2.1-8.2-3.2-18.5-3.2-30.8v-86.8H1822.4z" fill="#fff"/>
	<path d="M2054.8,1401.2c-3.2-0.8-6.3-1.5-9.2-2.1c-3-0.6-5.8-0.9-8.4-0.9c-9.9,0-17.6,2.5-23.1,7.5c-5.5,5-8.9,11.3-10.2,19v99.2 H1978v-147h17.9l5,19.6h2.5c4.3-7.3,9.3-12.9,15-16.9c5.7-4,12.8-6,21.4-6c2.6,0,5.7,0.2,9.2,0.7c3.5,0.5,7.1,1.3,10.6,2.4 L2054.8,1401.2z" fill="#fff"/>
	<path d="M2168.4,1329.8c7.8-1.7,16.4-2.8,25.6-3.5c9.2-0.7,18.3-1,27.3-1c9.5,0,19.2,0.8,29,2.5c9.8,1.7,18.7,4.8,26.7,9.2 c8,4.5,14.6,10.7,19.7,18.6c5.1,7.9,7.7,18.2,7.7,30.7c0,11.8-2.3,21.8-7,30.1c-4.7,8.3-10.9,15.1-18.6,20.3 c-7.7,5.2-16.6,9.1-26.6,11.5c-10,2.4-20.3,3.6-30.9,3.6c-1.1,0-2.8,0-5.2-0.1c-2.3-0.1-4.8-0.2-7.3-0.3c-2.5-0.1-4.9-0.2-7.3-0.4 c-2.3-0.2-4.1-0.4-5.2-0.6v73.4h-28V1329.8z M2222.2,1350c-5,0-9.9,0.1-14.7,0.3c-4.8,0.2-8.4,0.6-11.1,1.4v74.2 c0.9,0.4,2.5,0.6,4.6,0.7c2.1,0.1,4.4,0.2,6.7,0.4c2.3,0.2,4.6,0.3,6.7,0.3c2.1,0,3.8,0,4.9,0c6.7,0,13.3-0.5,19.9-1.5 c6.5-1,12.5-3,17.8-5.9c5.3-2.9,9.6-7.1,12.9-12.4c3.3-5.3,4.9-12.2,4.9-20.7c0-7.4-1.6-13.4-4.8-18.2c-3.2-4.8-7.3-8.6-12.3-11.3 c-5-2.8-10.7-4.6-16.9-5.7C2234.6,1350.5,2228.4,1350,2222.2,1350z" fill="#fff"/>
	<path d="M2450.7,1511.8c-6.5,4.9-14.7,8.7-24.4,11.6c-9.7,2.9-20.3,4.3-31.6,4.3c-12.3,0-23-1.8-32.1-5.5 c-9.1-3.6-16.5-8.8-22.3-15.5c-5.8-6.7-10.1-14.8-12.9-24.4c-2.8-9.5-4.2-20.2-4.2-31.9c0-25.2,6.2-44.5,18.6-57.8 c12.4-13.3,30.1-20,53.1-20c7.3,0,14.6,0.8,21.8,2.4c7.3,1.6,13.8,4.6,19.6,9c5.8,4.4,10.5,10.4,14.1,18.1c3.6,7.7,5.5,17.6,5.5,30 c0,3-0.1,6.4-0.3,10.4c-0.2,3.9-0.6,7.7-1.1,11.5h-105c0.4,17.2,4.5,30.1,12.3,38.9c7.8,8.8,21.2,13.2,40,13.2 c7.8,0,15.3-1.4,22.4-4.1c7.1-2.7,12.6-5.9,16.5-9.7L2450.7,1511.8z M2431.4,1435.4c0.4-14.9-2.7-25.5-9.1-31.6s-15.4-9.2-27-9.2 c-13.1,0-23.4,3.1-31.1,9.2c-7.7,6.2-12.1,16.7-13.4,31.6H2431.4z" fill="#fff"/>
	<path d="M2488.8,1450.5c0-12.1,1.6-23,4.8-32.6c3.2-9.6,7.8-17.8,14-24.5c6.2-6.7,13.7-11.9,22.5-15.4c8.9-3.5,19-5.3,30.4-5.3 c11.9,0,22.4,2,31.4,5.9c9,3.9,16.4,9.4,22.4,16.4c6,7,10.4,15.2,13.3,24.6c2.9,9.4,4.3,19.7,4.3,30.9c0,11.9-1.6,22.7-4.9,32.2 c-3.3,9.5-7.9,17.6-14,24.4c-6.1,6.7-13.5,11.9-22.4,15.4c-8.9,3.5-18.9,5.3-30.1,5.3c-12.3,0-23-2-31.9-5.9 c-9-3.9-16.4-9.3-22.3-16.2c-5.9-6.9-10.3-15.1-13.2-24.5C2490.2,1471.7,2488.8,1461.5,2488.8,1450.5z M2516.8,1450.5 c0,6.9,0.8,13.7,2.3,20.3c1.6,6.6,4.1,12.6,7.6,17.8c3.5,5.2,8,9.4,13.5,12.6c5.5,3.2,12.3,4.8,20.5,4.8 c28.7,0,43.1-18.5,43.1-55.4c0-7.3-0.8-14.3-2.3-21c-1.6-6.7-4.1-12.6-7.5-17.8c-3.4-5.1-7.9-9.3-13.4-12.5 c-5.5-3.2-12.2-4.8-19.9-4.8c-14.4,0-25.3,4.6-32.8,13.9S2516.8,1431.6,2516.8,1450.5z" fill="#fff"/>
	<path d="M2674.4,1376.9h17.4l5,18.8h2.5c5-7.3,11.6-12.9,19.6-16.9c8-4,17.1-6,27.2-6c21.3,0,37.1,5.9,47.6,17.8 c10.5,11.9,15.7,30.8,15.7,56.7c0,12.3-1.7,23.5-5.2,33.5c-3.5,10-8.4,18.5-14.8,25.5c-6.4,7-14.3,12.4-23.5,16.1 c-9.2,3.7-19.6,5.6-30.9,5.6c-3.7,0-7.1-0.1-10.2-0.4s-5.9-0.7-8.5-1.4c-2.6-0.7-5.2-1.4-7.8-2.2c-2.6-0.8-5.3-1.8-8.1-2.9v59.1 h-25.8V1376.9z M2739.9,1394.5c-11.1,0-19.8,2.8-26.1,8.4c-6.3,5.6-10.8,14.2-13.6,25.8v67.8c4.3,3,8.9,5.3,13.9,7 c5,1.7,11.4,2.5,19.2,2.5c15,0,26.8-4.9,35.3-14.8c8.5-9.9,12.8-24.6,12.8-44.2c0-15.9-3.2-28.6-9.5-38.1 C2765.6,1399.3,2754.9,1394.5,2739.9,1394.5z" fill="#fff"/>
	<path d="M2881,1484.9c0,7.7,1.4,13.1,4.3,16.2c2.9,3.2,6.8,4.8,11.6,4.8c3,0,5.9-0.2,8.7-0.6c2.8-0.4,6.2-1.1,10.1-2.2l3.4,19 c-1.9,0.7-4.1,1.4-6.7,2.1c-2.6,0.7-5.3,1.3-8.1,1.8c-2.8,0.6-5.6,1-8.4,1.3c-2.8,0.3-5.3,0.4-7.6,0.4c-10.1,0-18.1-2.6-24.1-7.7 c-6-5.1-9-13.7-9-25.6v-166.6h25.8V1484.9z" fill="#fff"/>
	<path d="M3066.7,1511.8c-6.5,4.9-14.7,8.7-24.4,11.6c-9.7,2.9-20.3,4.3-31.6,4.3c-12.3,0-23-1.8-32.1-5.5 c-9.1-3.6-16.5-8.8-22.3-15.5c-5.8-6.7-10.1-14.8-12.9-24.4c-2.8-9.5-4.2-20.2-4.2-31.9c0-25.2,6.2-44.5,18.6-57.8 c12.4-13.3,30.1-20,53.1-20c7.3,0,14.6,0.8,21.8,2.4c7.3,1.6,13.8,4.6,19.6,9c5.8,4.4,10.5,10.4,14.1,18.1c3.6,7.7,5.5,17.6,5.5,30 c0,3-0.1,6.4-0.3,10.4c-0.2,3.9-0.6,7.7-1.1,11.5h-105c0.4,17.2,4.5,30.1,12.3,38.9c7.8,8.8,21.2,13.2,40,13.2 c7.8,0,15.3-1.4,22.4-4.1c7.1-2.7,12.6-5.9,16.5-9.7L3066.7,1511.8z M3047.4,1435.4c0.4-14.9-2.7-25.5-9.1-31.6 c-6.4-6.2-15.4-9.2-27-9.2c-13.1,0-23.4,3.1-31.1,9.2c-7.7,6.2-12.1,16.7-13.4,31.6H3047.4z" fill="#fff"/>
	<path d="M3105.6,1509.6c0-5.4,1.7-9.7,5.2-12.9c3.5-3.2,8-4.8,13.6-4.8c5.6,0,10.1,1.6,13.6,4.8c3.5,3.2,5.2,7.5,5.2,12.9 c0,5-1.7,9.2-5.2,12.6c-3.5,3.4-8,5-13.6,5c-5.6,0-10.1-1.7-13.6-5C3107.3,1518.8,3105.6,1514.6,3105.6,1509.6z" fill="#fff"/>
	<path d="M3257.6,1425.9c0-16.1,2-30.4,6-43c4-12.6,9.8-23.2,17.4-31.9c7.6-8.7,16.8-15.3,27.7-19.9c10.9-4.6,23.3-6.9,37.1-6.9 c14.7,0,27.7,2.5,38.8,7.4c11.1,4.9,20.3,11.9,27.7,20.7c7.4,8.9,12.9,19.6,16.5,32.1c3.6,12.5,5.5,26.3,5.5,41.4 c0,16.1-2,30.4-6,43c-4,12.6-9.8,23.2-17.5,31.9c-7.7,8.7-16.9,15.3-27.9,19.9c-10.9,4.6-23.3,6.9-37.1,6.9 c-14.9,0-27.9-2.5-38.9-7.4c-11-4.9-20.2-11.9-27.4-20.7c-7.3-8.9-12.7-19.6-16.4-32.1C3259.4,1454.8,3257.6,1441,3257.6,1425.9z M3287.3,1425.9c0,10.6,1.2,20.5,3.5,29.7c2.3,9.3,5.9,17.4,10.6,24.5c4.8,7,10.8,12.6,18.2,16.7c7.4,4.1,16.1,6.1,26.2,6.1 c18.1,0,32.4-6.2,43-18.6c10.5-12.4,15.8-31.9,15.8-58.4c0-10.4-1.2-20.2-3.5-29.5c-2.3-9.3-5.9-17.4-10.6-24.5 c-4.8-7-10.8-12.6-18.2-16.8c-7.4-4.2-16.2-6.3-26.5-6.3c-17.9,0-32.2,6.3-42.7,18.9C3292.6,1380.4,3287.3,1399.7,3287.3,1425.9z" fill="#fff"/>
	<path d="M3502.1,1376.9v80.9c0,7.8,0.5,14.7,1.4,20.7c0.9,6,2.6,11,5,15c2.4,4,5.7,7.1,9.9,9.2c4.2,2.1,9.6,3.2,16.1,3.2 c11.2,0,20.3-3.2,27.4-9.5c7.1-6.3,12.5-14.2,16.2-23.5v-96h25.8v105.3c0,7.1,0.3,14.3,0.8,21.7c0.6,7.4,1.4,14,2.5,20H3590 l-6.7-24.4h-2.8c-4.9,8.4-11.6,15.2-20.2,20.4c-8.6,5.2-19.3,7.8-32.2,7.8c-8.6,0-16.1-1-22.5-3.1c-6.4-2.1-11.9-5.6-16.2-10.5 c-4.4-4.9-7.7-11.5-9.8-19.7c-2.1-8.2-3.2-18.5-3.2-30.8v-86.8H3502.1z" fill="#fff"/>
	<path d="M3734.5,1401.2c-3.2-0.8-6.3-1.5-9.2-2.1c-3-0.6-5.8-0.9-8.4-0.9c-9.9,0-17.6,2.5-23.1,7.5c-5.5,5-8.9,11.3-10.2,19v99.2 h-25.8v-147h17.9l5,19.6h2.5c4.3-7.3,9.3-12.9,15-16.9c5.7-4,12.8-6,21.4-6c2.6,0,5.7,0.2,9.2,0.7c3.5,0.5,7.1,1.3,10.6,2.4 L3734.5,1401.2z" fill="#fff"/>
	<path d="M3848.1,1327.9h118.4v24.6h-90.4v61.9h84v24.6h-84v84.8h-28V1327.9z" fill="#fff"/>
	<path d="M4032.9,1376.9v80.9c0,7.8,0.5,14.7,1.4,20.7c0.9,6,2.6,11,5,15c2.4,4,5.7,7.1,9.9,9.2c4.2,2.1,9.6,3.2,16.1,3.2 c11.2,0,20.3-3.2,27.4-9.5c7.1-6.3,12.5-14.2,16.2-23.5v-96h25.8v105.3c0,7.1,0.3,14.3,0.8,21.7c0.6,7.4,1.4,14,2.5,20h-17.4 l-6.7-24.4h-2.8c-4.9,8.4-11.6,15.2-20.2,20.4c-8.6,5.2-19.3,7.8-32.2,7.8c-8.6,0-16.1-1-22.5-3.1c-6.4-2.1-11.9-5.6-16.2-10.5 c-4.4-4.9-7.7-11.5-9.8-19.7c-2.1-8.2-3.2-18.5-3.2-30.8v-86.8H4032.9z" fill="#fff"/>
	<path d="M4170.7,1376.9h24.9v-29.7l25.8-6.7v36.4h44.2v21.8h-44.2v75c0,11.8,1.5,20.1,4.5,24.9c3,4.9,8.1,7.3,15.4,7.3 c4.7,0,8.9-0.5,12.7-1.5c3.8-1,8.2-2.4,13-4.1l5.9,18.2c-6,2.6-12.4,4.8-19.2,6.6c-6.8,1.8-14.1,2.7-22,2.7 c-13.1,0-22.4-3.5-27.9-10.6c-5.5-7.1-8.3-18.7-8.3-34.7v-83.7h-24.9V1376.9z" fill="#fff"/>
	<path d="M4328.9,1376.9v80.9c0,7.8,0.5,14.7,1.4,20.7c0.9,6,2.6,11,5,15c2.4,4,5.7,7.1,9.9,9.2c4.2,2.1,9.6,3.2,16.1,3.2 c11.2,0,20.3-3.2,27.4-9.5c7.1-6.3,12.5-14.2,16.2-23.5v-96h25.8v105.3c0,7.1,0.3,14.3,0.8,21.7c0.6,7.4,1.4,14,2.5,20h-17.4 l-6.7-24.4h-2.8c-4.9,8.4-11.6,15.2-20.2,20.4c-8.6,5.2-19.3,7.8-32.2,7.8c-8.6,0-16.1-1-22.5-3.1c-6.4-2.1-11.9-5.6-16.2-10.5 c-4.4-4.9-7.7-11.5-9.8-19.7c-2.1-8.2-3.2-18.5-3.2-30.8v-86.8H4328.9z" fill="#fff"/>
	<path d="M4561.3,1401.2c-3.2-0.8-6.3-1.5-9.2-2.1c-3-0.6-5.8-0.9-8.4-0.9c-9.9,0-17.6,2.5-23.1,7.5c-5.5,5-8.9,11.3-10.2,19v99.2 h-25.8v-147h17.9l5,19.6h2.5c4.3-7.3,9.3-12.9,15-16.9c5.7-4,12.8-6,21.4-6c2.6,0,5.7,0.2,9.2,0.7c3.5,0.5,7.1,1.3,10.6,2.4 L4561.3,1401.2z" fill="#fff"/>
	<path d="M4711.6,1511.8c-6.5,4.9-14.7,8.7-24.4,11.6c-9.7,2.9-20.3,4.3-31.6,4.3c-12.3,0-23-1.8-32.1-5.5 c-9.1-3.6-16.5-8.8-22.3-15.5c-5.8-6.7-10.1-14.8-12.9-24.4c-2.8-9.5-4.2-20.2-4.2-31.9c0-25.2,6.2-44.5,18.6-57.8 c12.4-13.3,30.1-20,53.1-20c7.3,0,14.6,0.8,21.8,2.4c7.3,1.6,13.8,4.6,19.6,9c5.8,4.4,10.5,10.4,14.1,18.1c3.6,7.7,5.5,17.6,5.5,30 c0,3-0.1,6.4-0.3,10.4c-0.2,3.9-0.6,7.7-1.1,11.5h-105c0.4,17.2,4.5,30.1,12.3,38.9c7.8,8.8,21.2,13.2,40,13.2 c7.8,0,15.3-1.4,22.4-4.1c7.1-2.7,12.6-5.9,16.5-9.7L4711.6,1511.8z M4692.3,1435.4c0.4-14.9-2.7-25.5-9.1-31.6 c-6.4-6.2-15.4-9.2-27-9.2c-13.1,0-23.4,3.1-31.1,9.2c-7.7,6.2-12.1,16.7-13.4,31.6H4692.3z" fill="#fff"/>
	<path d="M4750.6,1509.6c0-5.4,1.7-9.7,5.2-12.9c3.5-3.2,8-4.8,13.6-4.8c5.6,0,10.1,1.6,13.6,4.8c3.5,3.2,5.2,7.5,5.2,12.9 c0,5-1.7,9.2-5.2,12.6c-3.5,3.4-8,5-13.6,5c-5.6,0-10.1-1.7-13.6-5C4752.3,1518.8,4750.6,1514.6,4750.6,1509.6z" fill="#fff"/>
	<path d="M4902.6,1425.9c0-16.1,2-30.4,6-43c4-12.6,9.8-23.2,17.4-31.9c7.6-8.7,16.8-15.3,27.7-19.9c10.9-4.6,23.3-6.9,37.1-6.9 c14.7,0,27.7,2.5,38.8,7.4c11.1,4.9,20.3,11.9,27.7,20.7c7.4,8.9,12.9,19.6,16.5,32.1c3.6,12.5,5.5,26.3,5.5,41.4 c0,16.1-2,30.4-6,43c-4,12.6-9.8,23.2-17.5,31.9c-7.7,8.7-16.9,15.3-27.9,19.9c-10.9,4.6-23.3,6.9-37.1,6.9 c-14.9,0-27.9-2.5-38.9-7.4c-11-4.9-20.2-11.9-27.4-20.7c-7.3-8.9-12.7-19.6-16.4-32.1C4904.4,1454.8,4902.6,1441,4902.6,1425.9z M4932.3,1425.9c0,10.6,1.2,20.5,3.5,29.7c2.3,9.3,5.9,17.4,10.6,24.5c4.8,7,10.8,12.6,18.2,16.7c7.4,4.1,16.1,6.1,26.2,6.1 c18.1,0,32.4-6.2,43-18.6c10.5-12.4,15.8-31.9,15.8-58.4c0-10.4-1.2-20.2-3.5-29.5c-2.3-9.3-5.9-17.4-10.6-24.5 c-4.8-7-10.8-12.6-18.2-16.8c-7.4-4.2-16.2-6.3-26.5-6.3c-17.9,0-32.2,6.3-42.7,18.9C4937.5,1380.4,4932.3,1399.7,4932.3,1425.9z" fill="#fff"/>
	<path d="M5147,1376.9v80.9c0,7.8,0.5,14.7,1.4,20.7c0.9,6,2.6,11,5,15c2.4,4,5.7,7.1,9.9,9.2c4.2,2.1,9.6,3.2,16.1,3.2 c11.2,0,20.3-3.2,27.4-9.5c7.1-6.3,12.5-14.2,16.2-23.5v-96h25.8v105.3c0,7.1,0.3,14.3,0.8,21.7c0.6,7.4,1.4,14,2.5,20H5235 l-6.7-24.4h-2.8c-4.9,8.4-11.6,15.2-20.2,20.4c-8.6,5.2-19.3,7.8-32.2,7.8c-8.6,0-16.1-1-22.5-3.1c-6.4-2.1-11.9-5.6-16.2-10.5 c-4.4-4.9-7.7-11.5-9.8-19.7c-2.1-8.2-3.2-18.5-3.2-30.8v-86.8H5147z" fill="#fff"/>
	<path d="M5379.4,1401.2c-3.2-0.8-6.3-1.5-9.2-2.1c-3-0.6-5.8-0.9-8.4-0.9c-9.9,0-17.6,2.5-23.1,7.5c-5.5,5-8.9,11.3-10.2,19v99.2 h-25.8v-147h17.9l5,19.6h2.5c4.3-7.3,9.3-12.9,15-16.9c5.7-4,12.8-6,21.4-6c2.6,0,5.7,0.2,9.2,0.7c3.5,0.5,7.1,1.3,10.6,2.4 L5379.4,1401.2z" fill="#fff"/>
	<path d="M5493.1,1327.9c3.7-0.6,8.1-1,13-1.3c4.9-0.3,10.1-0.5,15.4-0.7c5.3-0.2,10.5-0.3,15.7-0.4c5.1-0.1,9.8-0.1,14.1-0.1 c17.2,0,32.1,2.5,44.7,7.4c12.6,4.9,23.1,11.8,31.4,20.6c8.3,8.8,14.5,19.2,18.6,31.4c4.1,12.1,6.2,25.4,6.2,39.8 c0,13.1-1.9,25.7-5.7,37.9c-3.8,12.2-9.9,23.1-18.3,32.6c-8.4,9.5-19.2,17.2-32.3,23c-13.2,5.8-29.1,8.7-47.7,8.7 c-3.2,0-7.4-0.1-12.7-0.3c-5.3-0.2-10.8-0.4-16.4-0.6c-5.6-0.2-10.8-0.4-15.5-0.7c-4.8-0.3-8.2-0.6-10.2-1V1327.9z M5552.2,1350 c-2.6,0-5.4,0-8.4,0c-3,0-6,0.1-9,0.3c-3,0.2-5.7,0.4-8.1,0.6c-2.4,0.2-4.3,0.4-5.6,0.6v149.5c0.9,0.2,2.8,0.3,5.5,0.4 c2.7,0.1,5.6,0.2,8.5,0.3c3,0.1,5.8,0.2,8.4,0.3c2.6,0.1,4.5,0.1,5.6,0.1c14,0,25.7-2.2,35.1-6.6c9.4-4.4,17-10.2,22.7-17.5 c5.7-7.3,9.7-15.5,12-24.8c2.3-9.2,3.5-18.8,3.5-28.7c0-8.4-1.1-17-3.4-25.8c-2.2-8.8-6.1-16.8-11.5-23.9 c-5.4-7.2-12.6-13.1-21.6-17.8C5577.1,1352.3,5565.8,1350,5552.2,1350z" fill="#fff"/>
	<path d="M5813.7,1511.8c-6.5,4.9-14.7,8.7-24.4,11.6c-9.7,2.9-20.3,4.3-31.6,4.3c-12.3,0-23-1.8-32.1-5.5 c-9.1-3.6-16.5-8.8-22.3-15.5c-5.8-6.7-10.1-14.8-12.9-24.4c-2.8-9.5-4.2-20.2-4.2-31.9c0-25.2,6.2-44.5,18.6-57.8 c12.4-13.3,30.1-20,53.1-20c7.3,0,14.6,0.8,21.8,2.4c7.3,1.6,13.8,4.6,19.6,9c5.8,4.4,10.5,10.4,14.1,18.1c3.6,7.7,5.5,17.6,5.5,30 c0,3-0.1,6.4-0.3,10.4c-0.2,3.9-0.6,7.7-1.1,11.5h-105c0.4,17.2,4.5,30.1,12.3,38.9c7.8,8.8,21.2,13.2,40,13.2 c7.8,0,15.3-1.4,22.4-4.1c7.1-2.7,12.6-5.9,16.5-9.7L5813.7,1511.8z M5794.4,1435.4c0.4-14.9-2.7-25.5-9.1-31.6 c-6.4-6.2-15.4-9.2-27-9.2c-13.1,0-23.4,3.1-31.1,9.2c-7.7,6.2-12.1,16.7-13.4,31.6H5794.4z M5761.6,1322.3h29.1v6.4l-31.4,35.6 h-15.7L5761.6,1322.3z" fill="#fff"/>
	<path d="M5891.8,1484.9c0,7.7,1.4,13.1,4.3,16.2c2.9,3.2,6.8,4.8,11.6,4.8c3,0,5.9-0.2,8.7-0.6c2.8-0.4,6.2-1.1,10.1-2.2l3.4,19 c-1.9,0.7-4.1,1.4-6.7,2.1c-2.6,0.7-5.3,1.3-8.1,1.8c-2.8,0.6-5.6,1-8.4,1.3c-2.8,0.3-5.3,0.4-7.6,0.4c-10.1,0-18.1-2.6-24.1-7.7 c-6-5.1-9-13.7-9-25.6v-166.6h25.8V1484.9z" fill="#fff"/>
	<path d="M5964.9,1376.9h25.8v147h-3.4c-6.5,3.5-10.7,7.3-12.5,11.3c-1.8,4-2.6,8.7-2.4,14.1c0.2,4.3,1.7,8.1,4.6,11.3 c2.9,3.3,7.1,4.9,12.7,4.9c3.7,0,7.8-0.8,12.3-2.5l3.1,11.8c-3.2,2.1-7.4,3.7-12.7,5c-5.3,1.3-10.4,2-15.3,2 c-9.5,0-17.1-2.3-22.8-7c-5.7-4.7-8.5-10.9-8.5-18.8c0-8.2,2.6-14.7,7.8-19.6c5.2-4.9,13-9.1,23.2-12.6h-12V1376.9z" fill="#fff"/>
	<path d="M6150.3,1523.9v-81.2c0-15.7-2.5-27.4-7.6-35.3c-5-7.8-14-11.8-26.9-11.8c-11.4,0-20.9,2.9-28.4,8.8 c-7.6,5.9-12.8,13.4-15.8,22.5v96.9h-25.8v-147h17.9l5,19.6h2.5c5.4-6.7,12.5-12.4,21.1-16.9c8.7-4.6,19.1-6.9,31.2-6.9 c8.6,0,16.1,1,22.7,2.9c6.5,2,12,5.4,16.4,10.4c4.4,4.9,7.7,11.6,9.9,19.9c2.2,8.3,3.4,18.8,3.4,31.5v86.5H6150.3z" fill="#fff"/>
	<path d="M6346,1511.8c-6.2,4.7-13.3,8.2-21.3,10.6h0.3c-6.2,3.2-11,7.1-14.4,11.9c-3.5,4.8-5.1,10-4.9,15.8c0.2,4.3,1.8,8,4.8,11.2 c3,3.2,7.2,4.8,12.6,4.8c3.7,0,7.8-0.8,12.3-2.5l3.4,11.5c-3.4,2.2-7.7,4-13,5.2c-5.3,1.2-10.3,1.8-15,1.8 c-9.7,0-17.4-2.2-23.1-6.7c-5.7-4.5-8.5-10.6-8.5-18.5c0-6,1.9-11.5,5.7-16.7c3.8-5.1,9-9.5,15.5-13c-1.7,0.2-3.4,0.3-5.2,0.4 c-1.8,0.1-3.5,0.1-5.2,0.1c-12.3,0-23-1.8-32.1-5.5c-9.1-3.6-16.5-8.8-22.3-15.5c-5.8-6.7-10.1-14.8-12.9-24.4 c-2.8-9.5-4.2-20.2-4.2-31.9c0-25.2,6.2-44.5,18.6-57.8c12.4-13.3,30.1-20,53.1-20c7.3,0,14.6,0.8,21.8,2.4 c7.3,1.6,13.8,4.6,19.6,9c5.8,4.4,10.5,10.4,14.1,18.1c3.6,7.7,5.5,17.6,5.5,30c0,3-0.1,6.4-0.3,10.4c-0.2,3.9-0.6,7.7-1.1,11.5 h-105c0.4,17.2,4.5,30.1,12.3,38.9c7.8,8.8,21.2,13.2,40,13.2c7.8,0,15.3-1.4,22.4-4.1c7.1-2.7,12.6-5.9,16.5-9.7L6346,1511.8z M6326.7,1435.4c0.4-14.9-2.7-25.5-9.1-31.6c-6.4-6.2-15.4-9.2-27-9.2c-13.1,0-23.4,3.1-31.1,9.2c-7.7,6.2-12.1,16.7-13.4,31.6 H6326.7z" fill="#fff"/>
	<path d="M6384.9,1509.6c0-5.4,1.7-9.7,5.2-12.9c3.5-3.2,8-4.8,13.6-4.8c5.6,0,10.1,1.6,13.6,4.8c3.5,3.2,5.2,7.5,5.2,12.9 c0,5-1.7,9.2-5.2,12.6c-3.5,3.4-8,5-13.6,5c-5.6,0-10.1-1.7-13.6-5C6386.6,1518.8,6384.9,1514.6,6384.9,1509.6z" fill="#fff"/>
</svg>